<svg xmlns="http://www.w3.org/2000/svg" xmlns:xlink="http://www.w3.org/1999/xlink" width="500" zoomAndPan="magnify" viewBox="0 0 375 374.999991" height="500" preserveAspectRatio="xMidYMid meet" version="1.0"><defs><g/><clipPath id="133ea8190f"><rect x="0" width="364" y="0" height="121"/></clipPath></defs><g transform="matrix(1, 0, 0, 1, 6, 127)"><g clip-path="url(#133ea8190f)"><g fill="#000000" fill-opacity="1"><g transform="translate(1.02194, 87.72769)"><g><path d="M 12.90625 0 C 10.957031 0 9.320312 -0.644531 8 -1.9375 C 6.675781 -3.226562 6.015625 -4.734375 6.015625 -6.453125 L 6.015625 -53.78125 C 6.015625 -55.5 6.675781 -57.003906 8 -58.296875 C 9.320312 -59.585938 10.957031 -60.234375 12.90625 -60.234375 L 29.25 -60.234375 C 33.09375 -60.234375 36.632812 -59.601562 39.875 -58.34375 C 43.125 -57.082031 45.894531 -55.332031 48.1875 -53.09375 C 50.476562 -50.851562 52.269531 -48.210938 53.5625 -45.171875 C 54.851562 -42.128906 55.5 -38.832031 55.5 -35.28125 L 55.5 -24.953125 C 55.5 -21.398438 54.851562 -18.101562 53.5625 -15.0625 C 52.269531 -12.019531 50.476562 -9.378906 48.1875 -7.140625 C 45.894531 -4.898438 43.125 -3.148438 39.875 -1.890625 C 36.632812 -0.628906 33.09375 0 29.25 0 Z M 29.25 -12.046875 C 32.925781 -12.046875 35.851562 -13.164062 38.03125 -15.40625 C 40.207031 -17.644531 41.296875 -20.828125 41.296875 -24.953125 L 41.296875 -35.28125 C 41.296875 -39.40625 40.207031 -42.585938 38.03125 -44.828125 C 35.851562 -47.066406 32.925781 -48.1875 29.25 -48.1875 L 19.796875 -48.1875 L 19.796875 -12.046875 Z M 29.25 -12.046875 "/></g></g></g><g fill="#000000" fill-opacity="1"><g transform="translate(61.674402, 87.72769)"><g><path d="M 24.515625 1.296875 C 21.484375 1.296875 18.703125 0.796875 16.171875 -0.203125 C 13.648438 -1.210938 11.484375 -2.5625 9.671875 -4.25 C 7.867188 -5.945312 6.453125 -7.914062 5.421875 -10.15625 C 4.390625 -12.394531 3.875 -14.742188 3.875 -17.203125 L 3.875 -25.8125 C 3.875 -28.28125 4.375 -30.628906 5.375 -32.859375 C 6.382812 -35.097656 7.789062 -37.0625 9.59375 -38.75 C 11.40625 -40.445312 13.539062 -41.796875 16 -42.796875 C 18.46875 -43.804688 21.164062 -44.3125 24.09375 -44.3125 C 27.019531 -44.3125 29.710938 -43.804688 32.171875 -42.796875 C 34.640625 -41.796875 36.773438 -40.445312 38.578125 -38.75 C 40.390625 -37.0625 41.796875 -35.097656 42.796875 -32.859375 C 43.804688 -30.628906 44.3125 -28.28125 44.3125 -25.8125 L 44.3125 -22.796875 C 44.3125 -21.304688 43.738281 -20 42.59375 -18.875 C 41.445312 -17.757812 40.015625 -17.203125 38.296875 -17.203125 L 15.921875 -17.203125 C 15.921875 -14.796875 16.707031 -12.832031 18.28125 -11.3125 C 19.863281 -9.789062 21.941406 -9.03125 24.515625 -9.03125 C 26.472656 -9.03125 28.039062 -9.226562 29.21875 -9.625 C 30.394531 -10.03125 31.410156 -10.476562 32.265625 -10.96875 C 33.128906 -11.457031 33.929688 -11.898438 34.671875 -12.296875 C 35.421875 -12.703125 36.34375 -12.90625 37.4375 -12.90625 C 38.925781 -12.90625 40.15625 -12.445312 41.125 -11.53125 C 42.101562 -10.613281 42.59375 -9.492188 42.59375 -8.171875 C 42.59375 -7.203125 42.234375 -6.171875 41.515625 -5.078125 C 40.796875 -3.984375 39.703125 -2.960938 38.234375 -2.015625 C 36.773438 -1.078125 34.898438 -0.289062 32.609375 0.34375 C 30.316406 0.976562 27.617188 1.296875 24.515625 1.296875 Z M 32.265625 -26.25 C 32.265625 -28.425781 31.503906 -30.257812 29.984375 -31.75 C 28.460938 -33.238281 26.5 -33.984375 24.09375 -33.984375 C 21.6875 -33.984375 19.722656 -33.238281 18.203125 -31.75 C 16.679688 -30.257812 15.921875 -28.425781 15.921875 -26.25 Z M 32.265625 -26.25 "/></g></g></g><g fill="#000000" fill-opacity="1"><g transform="translate(109.422067, 87.72769)"><g><path d="M 22.796875 1.296875 C 20.390625 1.296875 18.507812 0.738281 17.15625 -0.375 C 15.8125 -1.5 14.828125 -2.804688 14.203125 -4.296875 L 2.578125 -32.703125 C 2.347656 -33.273438 2.117188 -33.875 1.890625 -34.5 C 1.722656 -35.019531 1.582031 -35.566406 1.46875 -36.140625 C 1.351562 -36.710938 1.296875 -37.285156 1.296875 -37.859375 C 1.296875 -39.347656 1.867188 -40.648438 3.015625 -41.765625 C 4.160156 -42.890625 5.59375 -43.453125 7.3125 -43.453125 C 9.03125 -43.453125 10.40625 -42.960938 11.4375 -41.984375 C 12.476562 -41.015625 13.253906 -39.785156 13.765625 -38.296875 L 22.375 -15.0625 L 23.234375 -15.0625 L 31.84375 -38.296875 C 32.351562 -39.785156 33.125 -41.015625 34.15625 -41.984375 C 35.1875 -42.960938 36.566406 -43.453125 38.296875 -43.453125 C 40.015625 -43.453125 41.445312 -42.890625 42.59375 -41.765625 C 43.738281 -40.648438 44.3125 -39.347656 44.3125 -37.859375 C 44.3125 -37.285156 44.238281 -36.710938 44.09375 -36.140625 C 43.957031 -35.566406 43.800781 -35.019531 43.625 -34.5 L 43.03125 -32.703125 L 31.40625 -4.296875 C 30.769531 -2.804688 29.78125 -1.5 28.4375 -0.375 C 27.09375 0.738281 25.210938 1.296875 22.796875 1.296875 Z M 22.796875 1.296875 "/></g></g></g><g fill="#000000" fill-opacity="1"><g transform="translate(155.018933, 87.72769)"><g><path d="M 11.1875 0.4375 C 9.46875 0.4375 8.03125 -0.117188 6.875 -1.234375 C 5.726562 -2.359375 5.15625 -3.664062 5.15625 -5.15625 L 5.15625 -55.5 C 5.15625 -56.988281 5.726562 -58.289062 6.875 -59.40625 C 8.03125 -60.53125 9.46875 -61.09375 11.1875 -61.09375 C 12.90625 -61.09375 14.335938 -60.53125 15.484375 -59.40625 C 16.628906 -58.289062 17.203125 -56.988281 17.203125 -55.5 L 17.203125 -5.15625 C 17.203125 -3.664062 16.628906 -2.359375 15.484375 -1.234375 C 14.335938 -0.117188 12.90625 0.4375 11.1875 0.4375 Z M 11.1875 0.4375 "/></g></g></g><g fill="#000000" fill-opacity="1"><g transform="translate(177.387209, 87.72769)"><g><path d="M 24.515625 1.296875 C 21.484375 1.296875 18.703125 0.796875 16.171875 -0.203125 C 13.648438 -1.210938 11.484375 -2.5625 9.671875 -4.25 C 7.867188 -5.945312 6.453125 -7.914062 5.421875 -10.15625 C 4.390625 -12.394531 3.875 -14.742188 3.875 -17.203125 L 3.875 -25.8125 C 3.875 -28.28125 4.390625 -30.628906 5.421875 -32.859375 C 6.453125 -35.097656 7.867188 -37.0625 9.671875 -38.75 C 11.484375 -40.445312 13.648438 -41.796875 16.171875 -42.796875 C 18.703125 -43.804688 21.484375 -44.3125 24.515625 -44.3125 C 27.503906 -44.3125 30.273438 -43.804688 32.828125 -42.796875 C 35.378906 -41.796875 37.554688 -40.445312 39.359375 -38.75 C 41.171875 -37.0625 42.59375 -35.097656 43.625 -32.859375 C 44.65625 -30.628906 45.171875 -28.28125 45.171875 -25.8125 L 45.171875 -17.203125 C 45.171875 -14.742188 44.65625 -12.394531 43.625 -10.15625 C 42.59375 -7.914062 41.171875 -5.945312 39.359375 -4.25 C 37.554688 -2.5625 35.378906 -1.210938 32.828125 -0.203125 C 30.273438 0.796875 27.503906 1.296875 24.515625 1.296875 Z M 24.515625 -9.03125 C 27.097656 -9.03125 29.175781 -9.789062 30.75 -11.3125 C 32.332031 -12.832031 33.125 -14.796875 33.125 -17.203125 L 33.125 -25.8125 C 33.125 -28.21875 32.332031 -30.179688 30.75 -31.703125 C 29.175781 -33.222656 27.097656 -33.984375 24.515625 -33.984375 C 21.941406 -33.984375 19.863281 -33.222656 18.28125 -31.703125 C 16.707031 -30.179688 15.921875 -28.21875 15.921875 -25.8125 L 15.921875 -17.203125 C 15.921875 -14.796875 16.707031 -12.832031 18.28125 -11.3125 C 19.863281 -9.789062 21.941406 -9.03125 24.515625 -9.03125 Z M 24.515625 -9.03125 "/></g></g></g><g fill="#000000" fill-opacity="1"><g transform="translate(226.42536, 87.72769)"><g><path d="M 11.1875 18.9375 C 9.46875 18.9375 8.03125 18.375 6.875 17.25 C 5.726562 16.132812 5.15625 14.832031 5.15625 13.34375 L 5.15625 -37.859375 C 5.15625 -39.347656 5.726562 -40.648438 6.875 -41.765625 C 8.03125 -42.890625 9.46875 -43.453125 11.1875 -43.453125 C 12.28125 -43.453125 13.210938 -43.222656 13.984375 -42.765625 C 14.753906 -42.304688 15.367188 -41.816406 15.828125 -41.296875 C 16.398438 -40.671875 16.859375 -39.957031 17.203125 -39.15625 L 18.0625 -39.15625 C 18.8125 -40.125 19.703125 -40.984375 20.734375 -41.734375 C 21.648438 -42.359375 22.769531 -42.941406 24.09375 -43.484375 C 25.414062 -44.035156 26.992188 -44.3125 28.828125 -44.3125 C 31.066406 -44.3125 33.203125 -43.863281 35.234375 -42.96875 C 37.273438 -42.082031 39.066406 -40.835938 40.609375 -39.234375 C 42.160156 -37.628906 43.378906 -35.691406 44.265625 -33.421875 C 45.160156 -31.160156 45.609375 -28.625 45.609375 -25.8125 L 45.609375 -17.203125 C 45.609375 -14.398438 45.160156 -11.863281 44.265625 -9.59375 C 43.378906 -7.332031 42.160156 -5.394531 40.609375 -3.78125 C 39.066406 -2.175781 37.273438 -0.925781 35.234375 -0.03125 C 33.203125 0.851562 31.066406 1.296875 28.828125 1.296875 C 26.992188 1.296875 25.414062 1.019531 24.09375 0.46875 C 22.769531 -0.0703125 21.648438 -0.660156 20.734375 -1.296875 C 19.703125 -2.035156 18.8125 -2.894531 18.0625 -3.875 L 17.203125 -3.875 L 17.203125 13.34375 C 17.203125 14.832031 16.628906 16.132812 15.484375 17.25 C 14.335938 18.375 12.90625 18.9375 11.1875 18.9375 Z M 25.390625 -9.03125 C 27.796875 -9.03125 29.757812 -9.789062 31.28125 -11.3125 C 32.800781 -12.832031 33.5625 -14.796875 33.5625 -17.203125 L 33.5625 -25.8125 C 33.5625 -28.21875 32.800781 -30.179688 31.28125 -31.703125 C 29.757812 -33.222656 27.796875 -33.984375 25.390625 -33.984375 C 22.972656 -33.984375 21.003906 -33.222656 19.484375 -31.703125 C 17.960938 -30.179688 17.203125 -28.21875 17.203125 -25.8125 L 17.203125 -17.203125 C 17.203125 -14.796875 17.960938 -12.832031 19.484375 -11.3125 C 21.003906 -9.789062 22.972656 -9.03125 25.390625 -9.03125 Z M 25.390625 -9.03125 "/></g></g></g><g fill="#2c7aec" fill-opacity="1"><g transform="translate(275.914578, 87.72769)"><g><path d="M 13.34375 0.859375 C 11.382812 0.859375 9.742188 0.210938 8.421875 -1.078125 C 7.109375 -2.367188 6.453125 -3.875 6.453125 -5.59375 L 6.453125 -54.640625 C 6.453125 -56.359375 7.109375 -57.863281 8.421875 -59.15625 C 9.742188 -60.445312 11.382812 -61.09375 13.34375 -61.09375 C 15.289062 -61.09375 16.921875 -60.445312 18.234375 -59.15625 C 19.554688 -57.863281 20.21875 -56.359375 20.21875 -54.640625 L 20.21875 -5.59375 C 20.21875 -3.875 19.554688 -2.367188 18.234375 -1.078125 C 16.921875 0.210938 15.289062 0.859375 13.34375 0.859375 Z M 13.34375 0.859375 "/></g></g></g><g fill="#2c7aec" fill-opacity="1"><g transform="translate(302.584453, 87.72769)"><g><path d="M 8.171875 0.859375 C 6.222656 0.859375 4.585938 0.210938 3.265625 -1.078125 C 1.953125 -2.367188 1.296875 -3.875 1.296875 -5.59375 C 1.296875 -6.113281 1.378906 -6.742188 1.546875 -7.484375 C 1.722656 -8.234375 1.925781 -8.953125 2.15625 -9.640625 C 2.382812 -10.441406 2.671875 -11.242188 3.015625 -12.046875 L 19.359375 -54.203125 C 20.273438 -56.617188 21.519531 -58.515625 23.09375 -59.890625 C 24.675781 -61.265625 26.875 -61.953125 29.6875 -61.953125 C 32.5 -61.953125 34.691406 -61.265625 36.265625 -59.890625 C 37.847656 -58.515625 39.097656 -56.617188 40.015625 -54.203125 L 56.359375 -12.046875 C 56.703125 -11.242188 56.988281 -10.441406 57.21875 -9.640625 C 57.445312 -8.953125 57.644531 -8.234375 57.8125 -7.484375 C 57.988281 -6.742188 58.078125 -6.113281 58.078125 -5.59375 C 58.078125 -3.875 57.414062 -2.367188 56.09375 -1.078125 C 54.78125 0.210938 53.148438 0.859375 51.203125 0.859375 C 49.242188 0.859375 47.707031 0.328125 46.59375 -0.734375 C 45.476562 -1.796875 44.578125 -3.269531 43.890625 -5.15625 L 40.875 -13.34375 L 18.5 -13.34375 L 15.484375 -5.15625 C 14.796875 -3.269531 13.890625 -1.796875 12.765625 -0.734375 C 11.648438 0.328125 10.117188 0.859375 8.171875 0.859375 Z M 37 -25.390625 L 30.109375 -45.609375 L 29.25 -45.609375 L 22.375 -25.390625 Z M 37 -25.390625 "/></g></g></g></g></g></svg>